<?xml version="1.0" encoding="UTF-8"?>
<svg id="Layer_1" data-name="Layer 1" xmlns="http://www.w3.org/2000/svg" viewBox="0 0 409.8 314.55">
  <defs>
    <style>
      .cls-1 {
        fill: #fff;
      }
    </style>
  </defs>
  <g>
    <path class="cls-1" d="M71.73,85.56c1.13-3.4,1.36-8.5,1.36-12.81l-.11-51.91c0-5.67-.23-10.31-.79-13.37,1.59-1.47,6.23-1.47,7.03-.57,12.13,17.45,35.02,50.43,44.2,66.18l-1.93-56.44c-.34-5.1.79-8.95,3.06-10.09,1.25-.23,2.72-.23,4.08.34-.11,2.15.23,5.67.23,8.16v57.8c0,5.55.11,9.52.57,12.69-1.02,1.13-4.87,1.59-6.46.79-16.55-20.17-35.13-49.75-44.2-65.05l1.7,60.07c.11,3.4-2.27,5.55-4.65,5.55-1.7,0-3.06-.57-4.08-1.36Z"/>
    <path class="cls-1" d="M75.81,92.92c-2.87,0-5.56-.91-7.76-2.62-2.01-1.56-2.81-4.22-2.01-6.63.48-1.44,1.05-4.5,1.05-10.91l-.11-51.89c0-5.68-.23-9.81-.69-12.29-.37-2.02.31-4.09,1.82-5.49,3.08-2.86,7.85-2.84,9.24-2.77,2.82.15,4.97,1.04,6.38,2.65.15.17.28.34.41.53,7.88,11.34,21.67,31.18,32.52,47.67l-1.17-34.2c-.49-7.74,1.83-13.48,6.37-15.75.51-.25,1.05-.44,1.61-.54,2.63-.48,5.21-.23,7.46.7,2.34.98,3.82,3.32,3.68,5.85-.05.92.03,2.47.1,3.97.06,1.31.13,2.66.13,3.88v57.8c0,4.98.09,8.9.51,11.85.25,1.76-.29,3.54-1.48,4.86-3.08,3.42-9.96,3.97-13.6,2.15-.75-.38-1.42-.91-1.96-1.56-11.8-14.39-24.11-32.78-32.93-46.65l1.07,37.69c.11,3.24-1.02,6.27-3.17,8.5-1.98,2.05-4.71,3.23-7.47,3.23ZM75.47,12.41h0Z"/>
  </g>
  <g>
    <path class="cls-1" d="M195.61,85.67h-36.04c-3.06,0-5.21-1.81-5.21-5.1l-.11-59.39c0-4.53-.34-8.39-1.47-11.67,2.15-1.93,3.97-2.38,7.82-2.38h34.23c2.83,0,1.7,6.91-.91,8.05-9.86-1.7-19.83-2.83-30.6-2.95v29.47h27.88c.45,1.81.45,3.74,0,5.44h-27.88l.11,33.55c10.88-.11,23.57-1.7,32.53-3.17,2.49,1.47,2.72,8.16-.34,8.16Z"/>
    <path class="cls-1" d="M195.61,91.67h-36.04c-6.5,0-11.21-4.67-11.21-11.1l-.11-59.37c0-4.43-.35-7.43-1.15-9.73-.79-2.28-.13-4.82,1.67-6.43,3.65-3.27,7.1-3.91,11.82-3.91h34.23c3.66,0,6.64,2.56,7.43,6.36.96,4.6-1.25,11.14-5.95,13.18-1.07.47-2.26.61-3.41.41-8.45-1.46-16.09-2.33-23.58-2.68v17.29h21.88c2.75,0,5.15,1.87,5.82,4.55.7,2.82.7,5.74-.02,8.44-.7,2.63-3.08,4.46-5.8,4.46h-21.86l.07,21.35c10.55-.57,21.05-2.15,25.57-2.89,1.39-.23,2.81.04,4.03.75,4.3,2.54,5.64,8.58,4.45,12.96-1.06,3.87-4.13,6.37-7.84,6.37Z"/>
  </g>
  <g>
    <path class="cls-1" d="M274.71,80.01c0,3.4-3.4,6.8-8.73,6.8-6.01,0-9.18-4.19-12.13-9.75l-12.92-24.37-20.29,31.17c-1.02,1.7-2.38,2.83-4.65,2.83-2.95,0-4.53-1.7-4.99-5.67,3.06-1.13,5.44-3.85,8.61-8.27l18.02-26.18-14.96-27.77c-1.59-2.83-2.95-4.31-4.87-4.31-2.27,0-3.4,1.7-3.4,3.4-2.04-.68-3.4-2.49-3.4-4.87,0-3.29,2.61-6.8,8.39-6.8,6.12,0,9.52,4.19,12.47,9.86l11.9,22.78,18.36-30.03c1.02-1.59,2.27-2.83,4.65-2.83,3.06,0,4.53,1.7,4.99,5.67-3.29,1.36-6.01,4.42-8.61,8.27l-16.43,24.37,16.21,29.92c1.47,2.61,3.06,4.42,5.1,4.42s3.17-1.81,3.17-3.4c2.04.57,3.51,2.38,3.51,4.76Z"/>
    <path class="cls-1" d="M265.99,92.8c-10.56,0-15.2-8.74-17.43-12.93l-8.15-15.37-14.68,22.55c-2.85,4.66-6.85,5.64-9.73,5.64s-9.82-1.07-10.95-10.99c-.31-2.74,1.29-5.35,3.88-6.31,1.59-.59,3.46-2.86,5.79-6.1l15.91-23.11-12.64-23.47s-.04.03-.06.04c-1.57,1.13-3.58,1.44-5.41.83-4.56-1.52-7.5-5.67-7.5-10.57,0-6.36,4.94-12.8,14.39-12.8s14.62,7,17.79,13.09l6.99,13.37,12.83-20.99s.05-.08.07-.12c2.38-3.71,5.65-5.59,9.69-5.59,2.91,0,9.81,1.07,10.95,10.98.3,2.66-1.19,5.2-3.67,6.23-1.7.7-3.64,2.69-5.94,6.09l-14.39,21.34,13.94,25.75c1.48-1.08,3.37-1.42,5.13-.93,4.73,1.31,7.91,5.55,7.91,10.54,0,7.18-6.47,12.8-14.73,12.8ZM265.2,75.24h0s0,0,0,0ZM220.42,17.9h0s0,0,0,0Z"/>
  </g>
  <g>
    <path class="cls-1" d="M337.08,15.18c-6.35-1.36-13.71-3.17-20.97-3.74l.11,61.31c0,4.42.23,8.84,1.47,12.13-.91.79-2.72,2.04-5.33,2.04-3.06,0-5.21-1.93-5.21-4.99l-.11-70.49c-7.14.57-14.62,2.27-20.85,3.74-2.61-1.13-3.85-8.05-1.02-8.05h52.93c2.83,0,1.59,6.91-1.02,8.05Z"/>
    <path class="cls-1" d="M312.38,92.92c-6.39,0-11.21-4.72-11.21-10.99l-.1-63.72c-4.53.73-9.1,1.77-13.48,2.8-1.26.3-2.58.18-3.77-.34-4.75-2.06-6.99-8.63-6.03-13.24.78-3.77,3.76-6.31,7.4-6.31h52.93c3.64,0,6.61,2.54,7.4,6.31.96,4.61-1.28,11.18-6.03,13.24-1.15.5-2.42.63-3.65.36-1.01-.22-2.05-.44-3.11-.68-3.34-.73-6.95-1.53-10.59-2.13l.1,54.5c0,3.34.12,7.48,1.08,10.01.89,2.34.23,4.99-1.66,6.64-2.6,2.27-5.89,3.52-9.28,3.52Z"/>
  </g>
  <g>
    <path class="cls-1" d="M7.36,178.15l-.23-60.41c0-4.42,0-10.2-1.13-13.6,6.12-.57,17.11-.79,23.57-.79,20.97,0,32.87,13.03,32.87,40.01s-11.9,39.78-32.41,39.78H12.57c-3.29,0-5.21-1.93-5.21-4.99ZM29.57,178.95c14.85,0,22.89-9.75,22.89-35.02s-8.05-36.27-22.89-36.27h-13.37l.11,71.29h13.26Z"/>
    <path class="cls-1" d="M30.03,189.14H12.57c-6.6,0-11.21-4.51-11.21-10.98l-.23-60.39c0-3.7,0-9.25-.83-11.72-.58-1.74-.33-3.64.67-5.18s2.65-2.53,4.47-2.69c6.99-.65,18.84-.82,24.13-.82,14.52,0,38.87,5.98,38.87,46.01,0,37.84-20.89,45.78-38.41,45.78ZM22.3,172.95h7.27c16.89,0,16.89-18.88,16.89-29.02,0-30.27-12.27-30.27-16.89-30.27h-7.36l.09,59.29Z"/>
  </g>
  <g>
    <path class="cls-1" d="M79.67,143.93c0-27.54,10.77-40.8,30.15-40.8s30.26,13.26,30.26,40.8-10.77,40.69-30.26,40.69-30.15-13.26-30.15-40.69ZM129.99,143.93c0-25.39-6.91-36.61-20.17-36.61s-20.06,11.22-20.06,36.61,7.03,36.49,20.06,36.49,20.17-11.22,20.17-36.49Z"/>
    <path class="cls-1" d="M109.81,190.61c-13.5,0-36.15-6.07-36.15-46.69,0-17.48,4.7-46.8,36.15-46.8,11.79,0,20.95,4.19,27.22,12.45,6,7.9,9.04,19.46,9.04,34.35,0,17.44-4.71,46.69-36.26,46.69ZM109.81,113.32c-3.48,0-14.06,0-14.06,30.61s10.58,30.49,14.06,30.49c3.88,0,14.17,0,14.17-30.49s-10.3-30.61-14.17-30.61Z"/>
  </g>
  <g>
    <path class="cls-1" d="M170.56,177.7c10.2-.11,21.31-1.59,29.58-3.06,2.38,1.36,2.61,8.5-.45,8.5h-32.98c-3.06,0-5.21-1.81-5.21-5.1l-.11-60.29c0-4.42-.34-8.84-1.47-12.13.91-.79,2.72-2.04,5.33-2.04,3.06,0,5.21,1.81,5.21,4.99l.11,69.13Z"/>
    <path class="cls-1" d="M199.69,189.14h-32.98c-6.5,0-11.21-4.67-11.21-11.1l-.11-60.28c0-4.55-.39-7.98-1.15-10.18-.79-2.31-.11-4.86,1.72-6.47,2.6-2.27,5.89-3.53,9.28-3.53,6.5,0,11.21,4.62,11.21,10.99l.1,62.91c9.05-.53,17.69-1.89,22.54-2.75,1.38-.25,2.81,0,4.03.7,4.31,2.46,5.63,8.64,4.42,13.19-1.05,3.96-4.13,6.52-7.85,6.52Z"/>
  </g>
  <g>
    <path class="cls-1" d="M228.7,177.7c10.2-.11,21.31-1.59,29.58-3.06,2.38,1.36,2.61,8.5-.45,8.5h-32.98c-3.06,0-5.21-1.81-5.21-5.1l-.11-60.29c0-4.42-.34-8.84-1.47-12.13.91-.79,2.72-2.04,5.33-2.04,3.06,0,5.21,1.81,5.21,4.99l.11,69.13Z"/>
    <path class="cls-1" d="M257.83,189.14h-32.98c-6.5,0-11.21-4.67-11.21-11.1l-.11-60.28c0-4.56-.38-7.98-1.14-10.18-.8-2.31-.12-4.87,1.72-6.47,2.6-2.27,5.89-3.52,9.28-3.52,6.5,0,11.21,4.62,11.21,10.99l.1,62.91c9.05-.53,17.69-1.89,22.54-2.75,1.38-.24,2.81,0,4.03.7,4.31,2.46,5.63,8.64,4.42,13.19-1.05,3.96-4.13,6.52-7.85,6.52Z"/>
  </g>
  <g>
    <path class="cls-1" d="M335.87,182.23c-1.02,1.13-2.61,2.15-5.33,2.15s-5.1-1.25-5.78-3.74l-6.8-22.44h-29.81l-5.67,18.93c-.34,1.25-.68,2.61-.68,3.74s.11,1.93.68,2.61c-1.47.57-2.83.91-4.99.91-3.51,0-5.21-1.36-5.21-4.19,0-1.25.57-3.29,1.13-5.1l24.03-70.49c2.61-1.02,4.99-1.47,7.48-1.47s4.65.79,5.44,3.4l22.78,70.38c.57,1.7,1.47,3.97,2.72,5.33ZM316.27,152.77l-13.37-43.52-13.15,43.52h26.52Z"/>
    <path class="cls-1" d="M330.55,190.39c-5.73,0-10.14-3.09-11.54-8.07l-5.49-18.11h-20.89l-4.36,14.57c-.25.94-.4,1.59-.44,1.95.67,1.3.85,2.82.48,4.27-.49,1.87-1.85,3.39-3.65,4.09-2.41.93-4.48,1.31-7.14,1.31-8.28,0-11.21-5.49-11.21-10.19,0-1.68.42-3.74,1.41-6.89.01-.05.03-.1.05-.15l24.03-70.49c.57-1.67,1.85-3.01,3.49-3.65,3.24-1.27,6.4-1.89,9.67-1.89,7.92,0,10.44,5.26,11.16,7.59l22.77,70.34c.8,2.41,1.43,3.12,1.44,3.12,2.07,2.28,2.09,5.78.04,8.07-2.44,2.71-5.82,4.14-9.79,4.14ZM287.11,179.64s0,0,0,0c0,0,0,0,0,0ZM297.83,146.77h10.32l-5.2-16.93-5.11,16.93Z"/>
  </g>
  <g>
    <path class="cls-1" d="M403.8,178.61c0,3.97-4.31,5.78-6.8,5.78-6.01,0-8.61-4.19-11.45-11.22l-5.21-13.37c-2.27-5.67-4.31-11.22-14.28-11.22l-8.39-.11v22.1c0,2.38.23,8.61,1.47,11.79-.79.79-2.72,2.04-5.21,2.04-3.17,0-5.33-1.93-5.44-4.99v-61.65c0-2.27-.23-8.73-1.47-12.13,2.38-1.25,7.14-2.49,16.66-2.49,21.31,0,31.62,6.12,31.62,21.42,0,11.11-6.91,18.93-17.34,21.53,5.67,1.59,8.5,6.12,10.88,11.45l5.67,13.37c1.81,4.53,3.4,6.12,5.33,6.23.79,0,2.27-.23,3.29-1.47.57,1.13.68,2.04.68,2.95ZM366.51,144.49c10.88-.23,18.81-7.59,18.81-19.15,0-12.24-6.23-18.13-21.19-18.13-2.95,0-5.1.11-6.46.34v36.83c2.49.11,5.33.11,8.84.11Z"/>
    <path class="cls-1" d="M397,190.39c-10.97,0-14.75-9.38-17.01-14.98l-5.34-13.69c-2.13-5.35-2.85-7.15-8.59-7.15l-2.39-.03v16.02c0,3.39.4,7.91,1.06,9.59.87,2.22.34,4.75-1.34,6.43-1.83,1.84-5.28,3.8-9.46,3.8-6.4,0-11.2-4.53-11.44-10.77,0-.07,0-.15,0-.22v-61.65c0-3.46-.41-8.17-1.11-10.06-1.04-2.83.18-5.98,2.85-7.38,4.08-2.14,10.44-3.18,19.44-3.18s37.62,0,37.62,27.42c0,9.57-4.22,17.63-11.49,22.71,1.91,2.43,3.32,5.17,4.51,7.82.02.04.03.07.05.11l5.67,13.37s.03.07.05.11c.24.6.46,1.09.65,1.49.95-.41,2.01-.58,3.06-.46,2.02.23,3.79,1.46,4.7,3.28,1.18,2.35,1.31,4.34,1.31,5.63,0,5.67-4.89,11.78-12.8,11.78ZM398.48,171.86s0,0,0,0c0,0,0,0,0,0ZM363.67,138.49c.87,0,1.79,0,2.77,0,7.95-.19,12.88-5.23,12.88-13.15s-2.42-12.13-15.19-12.13c-.16,0-.31,0-.46,0v25.28Z"/>
  </g>
  <g>
    <g>
      <path class="cls-1" d="M48.56,255.26c0-34.58,14.84-53.43,40.07-53.43,15.88,0,29.54,6.68,29.54,14.99,0,3.56-3.56,7.12-9.65,6.53-1.63-10.39-8.76-16.03-19.74-16.03-17.66,0-27.01,16.18-27.01,47.94s9.35,47.79,26.72,47.79c10.54,0,20.19-6.53,22.56-19.15,4.9-.59,9.94,1.19,9.94,5.94,0,10.09-15.88,18.7-33.1,18.7-24.79,0-39.33-18.85-39.33-53.28Z"/>
      <path class="cls-1" d="M87.89,314.55c-14.21,0-25.88-5.58-33.77-16.14-7.67-10.27-11.56-24.79-11.56-43.15s3.97-33.01,11.8-43.31c8.01-10.54,19.86-16.12,34.28-16.12,20.26,0,35.54,9.02,35.54,20.99,0,3.31-1.47,6.55-4.04,8.88-3.09,2.8-7.42,4.09-12.19,3.62-2.72-.27-4.92-2.34-5.34-5.04-1.16-7.38-5.68-10.96-13.81-10.96-13.94,0-21.01,14.11-21.01,41.94s6.97,41.79,20.72,41.79c6.76,0,14.69-3.75,16.66-14.26.48-2.57,2.58-4.53,5.17-4.85,5.08-.62,9.77.6,12.87,3.35,2.45,2.17,3.79,5.2,3.79,8.54,0,14.78-20.22,24.7-39.1,24.7ZM58.28,230.15c-2.96,8.46-3.72,17.81-3.72,25.11s.78,17.19,3.92,25.83c-1.8-7.25-2.71-15.89-2.71-25.83s.92-18.34,2.51-25.11Z"/>
    </g>
    <g>
      <path class="cls-1" d="M155.54,299.49c13.36-.15,27.9-2.08,38.74-4.01,3.12,1.78,3.41,11.13-.59,11.13h-43.19c-4.01,0-6.83-2.38-6.83-6.68l-.15-78.96c0-5.79-.45-11.58-1.93-15.88,1.19-1.04,3.56-2.67,6.98-2.67,4.01,0,6.83,2.37,6.83,6.53l.15,90.54Z"/>
      <path class="cls-1" d="M193.69,312.62h-43.19c-7.55,0-12.83-5.21-12.83-12.68l-.15-78.95c0-6.17-.54-10.85-1.6-13.94-.79-2.31-.11-4.86,1.72-6.47,3.06-2.68,6.94-4.16,10.93-4.16,7.43,0,12.83,5.27,12.83,12.53l.14,84.36c12.65-.61,24.95-2.53,31.7-3.73,1.39-.24,2.81,0,4.03.7,4.8,2.74,6.29,10.02,4.91,15.19-1.17,4.41-4.42,7.15-8.48,7.15ZM148.59,208.42c.4,2.28.67,4.82.81,7.65v-7.11c-.01-.21-.03-.35-.05-.44-.12-.04-.36-.1-.76-.1Z"/>
    </g>
    <g>
      <path class="cls-1" d="M284.23,261.35c0,31.17-12.32,47.2-36.36,47.2s-35.18-14.69-35.18-47.2v-40.37c0-5.79-.3-11.58-1.78-15.88,1.19-1.04,3.56-2.67,6.83-2.67,4.01,0,6.83,2.37,6.83,6.53v52.84c0,28.65,7.27,41.26,23.3,41.26s24.64-14.25,24.64-41.26v-40.82c0-5.79-.44-11.58-1.93-15.88,1.19-1.04,3.41-2.67,6.83-2.67,3.86,0,6.83,2.37,6.83,6.53v52.39Z"/>
      <path class="cls-1" d="M247.87,314.55c-27.32,0-41.18-17.9-41.18-53.2v-40.37c0-4.52-.17-10.19-1.45-13.92-.8-2.31-.11-4.87,1.72-6.47,3.06-2.68,6.89-4.16,10.78-4.16,7.43,0,12.83,5.27,12.83,12.53v52.84c0,35.26,11.69,35.26,17.3,35.26,18.64,0,18.64-26.54,18.64-35.26v-40.82c0-6.16-.54-10.84-1.6-13.92-.79-2.31-.12-4.86,1.72-6.47,3.15-2.76,6.78-4.16,10.78-4.16,7.43,0,12.83,5.27,12.83,12.53v52.39c0,16.87-3.5,29.97-10.41,38.95-7.28,9.46-18.03,14.25-31.95,14.25ZM217.89,208.43c.37,2.19.57,4.46.68,6.7v-6.17c0-.21-.02-.34-.04-.43-.11-.04-.31-.09-.65-.1ZM277.58,208.43c.28,1.59.5,3.32.65,5.19v-4.66c0-.2-.02-.33-.04-.4-.09-.04-.29-.11-.61-.12Z"/>
    </g>
    <g>
      <path class="cls-1" d="M373.48,278.71c0,20.93-15.14,27.9-41.56,27.9h-14.25c-4.16,0-6.97-2.38-7.12-6.68v-78.96c0-2.97-.3-11.43-1.93-15.88,3.12-1.63,8.91-3.27,21.22-3.27,24.94,0,38.44,7.27,38.44,25.23,0,12.17-6.38,21.52-18.26,25.08,14.99,2.37,23.45,11.28,23.45,26.57ZM322.57,207.47v42.45h12.47c11.87.15,20.63-7.42,20.63-22.12s-7.42-20.63-26.42-20.63c-2.97,0-5.2,0-6.68.3ZM360.57,278.86c0-18.55-11.28-23.45-28.2-23.45h-9.8v45.71h9.8c18.11,0,28.2-6.09,28.2-22.26Z"/>
      <path class="cls-1" d="M331.92,312.62h-14.25c-7.59,0-12.86-5.01-13.12-12.47,0-.07,0-.14,0-.21v-78.96c0-3.69-.42-10.71-1.56-13.81-1.04-2.83.18-5.99,2.85-7.38,5.14-2.69,12.77-3.95,24.01-3.95,29.49,0,44.44,10.51,44.44,31.23,0,9.72-3.5,17.96-9.77,23.73,9.65,5.53,14.97,15.21,14.97,27.92,0,33.9-35.79,33.9-47.56,33.9ZM316.55,299.81c0,.09.01.17.02.25v-44.65c0-.99.24-1.92.66-2.75-.42-.82-.66-1.76-.66-2.75v-41.11c-.31.06-.6.12-.89.18.81,5.17.86,10.61.86,11.99v78.83ZM328.57,295.13h3.8c18.42,0,22.2-6.5,22.2-16.26,0-11.05-3.63-17.45-22.2-17.45h-3.8v33.71ZM365.01,267.61c.99,3.17,1.56,6.89,1.56,11.25s-.62,8.18-1.84,11.53c2.06-3.28,2.76-7.22,2.76-11.68s-.82-8.09-2.47-11.1ZM328.57,243.92h6.47c3.08.03,7.31-.56,10.41-3.62,2.76-2.72,4.22-7.04,4.22-12.49,0-9.49-3.25-14.63-20.42-14.63h-.68v30.75ZM360.31,218c.87,2.78,1.36,6.02,1.36,9.8,0,2.49-.22,4.86-.65,7.09.84-2.34,1.27-4.96,1.27-7.83,0-3.11-.41-6.25-1.97-9.06Z"/>
    </g>
  </g>
</svg>